# xmcd
#
# Track frame offsets:
#   150
#   13250
#   26137
#   38963
#   53944
#   69497
#   80824
#   96457
#   110635
#   122331
#   137408
#   151494
#   166670
#   177317
#   195568
#   210890
#   229388
#   245258
#   260385
#   272588
#   286872
#   301134
#   315402
#   327814
#   341921
#
# Disc length: 4720 seconds
#
# Revision: 0
# Processed by: cddbd v1.5.1PL0 Copyright (c) Steve Scherf et al.
# Submitted via: GXTranscoder 2.0.1939
#
DISCID=5e126e19
DTITLE=Norteñas - Norteñas_Corridos
DYEAR=2005
DGENRE=country
TTITLE0=Corrido
TTITLE1=Corrido1
TTITLE2=Corrido 2
TTITLE3=Corrido 3
TTITLE4=Corrido 4
TTITLE5=Corrido 5
TTITLE6=Corrido 6
TTITLE7=Corrido 7
TTITLE8=Corrido 8
TTITLE9=Corrido 9
TTITLE10=Corrido 8
TTITLE11=Corrido 10
TTITLE12=Corrido 11
TTITLE13=Corrido 12
TTITLE14=Corrido 13
TTITLE15=Corrido 14
TTITLE16=Corrido 15
TTITLE17=Corrido 16
TTITLE18=Corrido 17
TTITLE19=Corrido 18
TTITLE20=Corrido 19
TTITLE21=Corrido 20
TTITLE22=Corrido 21
TTITLE23=Corrido 22
TTITLE24=Corrido 23
EXTD=
EXTT0=
EXTT1=
EXTT2=
EXTT3=
EXTT4=
EXTT5=
EXTT6=
EXTT7=
EXTT8=
EXTT9=
EXTT10=
EXTT11=
EXTT12=
EXTT13=
EXTT14=
EXTT15=
EXTT16=
EXTT17=
EXTT18=
EXTT19=
EXTT20=
EXTT21=
EXTT22=
EXTT23=
EXTT24=
PLAYORDER=
